<svg width="40" height="40" viewBox="0 0 40 40" fill="none" xmlns="http://www.w3.org/2000/svg">
<rect width="40" height="40" rx="5.88" fill="#4A67FF"/>
<path d="M23.8402 15.8398C23.8402 17.9606 22.1209 19.6798 20.0002 19.6798C17.8794 19.6798 16.1602 17.9606 16.1602 15.8398" stroke="#333333" stroke-width="1.92" stroke-linecap="round"/>
<path d="M12.4638 13.7312C12.5628 12.3944 13.6763 11.3604 15.0168 11.3604H24.982C26.3225 11.3604 27.436 12.3944 27.535 13.7312L28.4357 25.8912C28.5457 27.3755 27.3711 28.6404 25.8827 28.6404H14.116C12.6277 28.6404 11.4531 27.3755 11.563 25.8912L12.4638 13.7312Z" stroke="#333333" stroke-width="1.92"/>
<path fill-rule="evenodd" clip-rule="evenodd" d="M15.0147 10.3999C13.1715 10.3999 11.6405 11.8217 11.5043 13.6599L10.6036 25.8199C10.4524 27.8608 12.0675 29.5999 14.1139 29.5999H25.8807C27.9271 29.5999 29.5422 27.8608 29.391 25.8199L28.4903 13.6599C28.3541 11.8217 26.8231 10.3999 24.9799 10.3999H15.0147ZM13.4191 13.8017C13.4809 12.9662 14.1769 12.3199 15.0147 12.3199H24.9799C25.8177 12.3199 26.5137 12.9662 26.5755 13.8017L27.4763 25.9617C27.545 26.8894 26.8109 27.6799 25.8807 27.6799H14.1139C13.1837 27.6799 12.4496 26.8894 12.5183 25.9617L13.4191 13.8017ZM17.1177 15.84C17.1177 15.3098 16.6878 14.88 16.1577 14.88C15.6275 14.88 15.1977 15.3098 15.1977 15.84C15.1977 18.4909 17.3467 20.64 19.9977 20.64C22.6486 20.64 24.7977 18.4909 24.7977 15.84C24.7977 15.3098 24.3679 14.88 23.8377 14.88C23.3075 14.88 22.8777 15.3098 22.8777 15.84C22.8777 17.4306 21.5882 18.72 19.9977 18.72C18.4071 18.72 17.1177 17.4306 17.1177 15.84Z" fill="white"/>
</svg>
