<svg width="106" height="30" viewBox="0 0 106 30" fill="none" xmlns="http://www.w3.org/2000/svg">
<path fill-rule="evenodd" clip-rule="evenodd" d="M56.3141 3.40158C56.3141 3.87506 56.2206 4.31739 56.0337 4.72857C55.8593 5.13975 55.6163 5.50109 55.3048 5.81259C54.9933 6.11163 54.6258 6.3546 54.2021 6.5415C53.7909 6.71594 53.3486 6.80316 52.8751 6.80316C52.4016 6.80316 51.9531 6.71594 51.5294 6.5415C51.1183 6.3546 50.7569 6.11163 50.4454 5.81259C50.1464 5.50109 49.9034 5.13975 49.7165 4.72857C49.5421 4.31739 49.4549 3.87506 49.4549 3.40158C49.4549 2.94056 49.5421 2.50446 49.7165 2.09328C49.9034 1.66964 50.1464 1.3083 50.4454 1.00926C50.7569 0.69776 51.1183 0.45479 51.5294 0.28035C51.9531 0.0934499 52.4016 0 52.8751 0C53.3486 0 53.7909 0.0934499 54.2021 0.28035C54.6258 0.45479 54.9933 0.69776 55.3048 1.00926C55.6163 1.3083 55.8593 1.66964 56.0337 2.09328C56.2206 2.50446 56.3141 2.94056 56.3141 3.40158ZM55.4356 28.8573H50.2959V8.84036H55.4356V28.8573ZM76.3046 12.821L72.5666 16.5777C72.3797 16.0544 72.1243 15.5871 71.8003 15.176C71.4763 14.7523 71.1088 14.3972 70.6976 14.1106C70.2989 13.8241 69.8628 13.606 69.3893 13.4565C68.9158 13.307 68.4299 13.2322 67.9315 13.2322C67.2337 13.2322 66.5733 13.3755 65.9503 13.6621C65.3398 13.9487 64.804 14.3536 64.343 14.8769C63.8944 15.3878 63.5393 15.9983 63.2777 16.7085C63.016 17.4188 62.8852 18.2037 62.8852 19.0635C62.8852 19.7612 63.016 20.4154 63.2777 21.0259C63.5393 21.6365 63.8944 22.1723 64.343 22.6333C64.804 23.0943 65.3398 23.4556 65.9503 23.7173C66.5733 23.979 67.2337 24.1098 67.9315 24.1098C68.4299 24.1098 68.9096 24.0413 69.3706 23.9042C69.8316 23.7671 70.2615 23.574 70.6602 23.3248C71.0714 23.0631 71.4327 22.7516 71.7442 22.3903C72.0682 22.0165 72.3298 21.6053 72.5292 21.1568L76.2672 24.9135C75.7937 25.5863 75.2455 26.1906 74.6225 26.7264C74.0119 27.2622 73.3453 27.7169 72.6227 28.0907C71.9124 28.4646 71.1586 28.7449 70.3612 28.9318C69.5762 29.1312 68.7663 29.2308 67.9315 29.2308C66.5235 29.2308 65.1965 28.9692 63.9505 28.4459C62.717 27.9101 61.6329 27.1812 60.6984 26.2591C59.7764 25.3371 59.0475 24.2593 58.5117 23.0258C57.9759 21.7922 57.708 20.4715 57.708 19.0635C57.708 17.5309 57.9759 16.098 58.5117 14.7648C59.0475 13.4316 59.7764 12.2728 60.6984 11.2884C61.6329 10.2916 62.717 9.50667 63.9505 8.93351C65.1965 8.36035 66.5235 8.07377 67.9315 8.07377C68.7663 8.07377 69.5824 8.17968 70.3799 8.3915C71.1898 8.60332 71.956 8.91482 72.6787 9.326C73.4139 9.72472 74.0867 10.2169 74.6972 10.8025C75.3202 11.3881 75.856 12.061 76.3046 12.821ZM47.2038 22.8576C47.7396 21.5617 48.0075 20.1662 48.0075 18.671C48.0075 17.0761 47.7396 15.6308 47.2038 14.3349C46.668 13.0266 45.9391 11.9114 45.0171 10.9894C44.095 10.0549 43.011 9.33846 41.765 8.84006C40.5315 8.3292 39.2045 8.07377 37.784 8.07377C36.3761 8.07377 35.0491 8.34166 33.8031 8.87744C32.5695 9.41322 31.4855 10.1546 30.551 11.1015C29.629 12.036 28.9001 13.1512 28.3643 14.4471C27.8285 15.7429 27.5606 17.1509 27.5606 18.671C27.5606 20.1662 27.8285 21.5617 28.3643 22.8576C28.9001 24.1409 29.629 25.2561 30.551 26.2031C31.4855 27.1376 32.5695 27.8789 33.8031 28.4272C35.0491 28.9629 36.3761 29.2308 37.784 29.2308C39.2045 29.2308 40.5315 28.9629 41.765 28.4272C43.011 27.8789 44.095 27.1376 45.0171 26.2031C45.9391 25.2561 46.668 24.1409 47.2038 22.8576ZM42.4565 16.4469C42.7307 17.1073 42.8677 17.8486 42.8677 18.671C42.8677 19.4809 42.7307 20.2223 42.4565 20.8951C42.1949 21.5679 41.8335 22.1411 41.3725 22.6146C40.9115 23.0881 40.3695 23.4556 39.7465 23.7173C39.1359 23.979 38.4818 24.1098 37.784 24.1098C37.0863 24.1098 36.4259 23.9727 35.8029 23.6986C35.1924 23.412 34.6566 23.0258 34.1956 22.5398C33.747 22.0539 33.3919 21.4807 33.1302 20.8203C32.8686 20.16 32.7377 19.4435 32.7377 18.671C32.7377 17.8486 32.8686 17.1073 33.1302 16.4469C33.3919 15.774 33.747 15.2009 34.1956 14.7274C34.6566 14.2415 35.1924 13.8739 35.8029 13.6247C36.4259 13.363 37.0863 13.2322 37.784 13.2322C38.4818 13.2322 39.1359 13.363 39.7465 13.6247C40.3695 13.8739 40.9115 14.2415 41.3725 14.7274C41.8335 15.2009 42.1949 15.774 42.4565 16.4469ZM97.1838 18.671C97.1838 20.1662 96.9159 21.5617 96.3801 22.8576C95.8444 24.1409 95.1155 25.2561 94.1934 26.2031C93.2714 27.1376 92.1874 27.8789 90.9414 28.4272C89.7078 28.9629 88.3808 29.2308 86.9604 29.2308C85.5524 29.2308 84.2254 28.9629 82.9794 28.4272C81.7459 27.8789 80.6619 27.1376 79.7274 26.2031C78.8053 25.2561 78.0764 24.1409 77.5406 22.8576C77.0049 21.5617 76.737 20.1662 76.737 18.671C76.737 17.1509 77.0049 15.7429 77.5406 14.4471C78.0764 13.1512 78.8053 12.036 79.7274 11.1015C80.6619 10.1546 81.7459 9.41322 82.9794 8.87744C84.2254 8.34166 85.5524 8.07377 86.9604 8.07377C88.3808 8.07377 89.7078 8.3292 90.9414 8.84006C92.1874 9.33846 93.2714 10.0549 94.1934 10.9894C95.1155 11.9114 95.8444 13.0266 96.3801 14.3349C96.9159 15.6308 97.1838 17.0761 97.1838 18.671ZM92.0441 18.671C92.0441 17.8486 91.907 17.1073 91.6329 16.4469C91.3712 15.774 91.0099 15.2009 90.5489 14.7274C90.0878 14.2415 89.5458 13.8739 88.9228 13.6247C88.3123 13.363 87.6581 13.2322 86.9604 13.2322C86.2626 13.2322 85.6022 13.363 84.9792 13.6247C84.3687 13.8739 83.8329 14.2415 83.3719 14.7274C82.9233 15.2009 82.5682 15.774 82.3066 16.4469C82.0449 17.1073 81.9141 17.8486 81.9141 18.671C81.9141 19.4435 82.0449 20.16 82.3066 20.8203C82.5682 21.4807 82.9233 22.0539 83.3719 22.5398C83.8329 23.0258 84.3687 23.412 84.9792 23.6986C85.6022 23.9727 86.2626 24.1098 86.9604 24.1098C87.6581 24.1098 88.3123 23.979 88.9228 23.7173C89.5458 23.4556 90.0878 23.0881 90.5489 22.6146C91.0099 22.1411 91.3712 21.5679 91.6329 20.8951C91.907 20.2223 92.0441 19.4809 92.0441 18.671ZM23.213 10.8977C23.092 10.7745 22.9672 10.656 22.8384 10.5421C22.1284 9.94436 21.3499 9.48355 20.5029 9.1597C19.7113 8.84993 18.8932 8.68278 18.0488 8.65823C18.0193 8.65739 17.9898 8.65671 17.9602 8.65618C17.917 8.65544 17.8736 8.65507 17.8302 8.65507C16.8957 8.65507 15.9862 8.82951 15.1015 9.17839C14.2044 9.52727 13.4194 10.1316 12.7466 10.9913L12.7278 10.966L12.7092 10.9911C12.0364 10.1314 11.2514 9.52707 10.3543 9.17819C9.46959 8.82931 8.56002 8.65487 7.62552 8.65487C6.70348 8.65487 5.81259 8.82308 4.95285 9.1595C4.10963 9.48191 3.33428 9.94006 2.62681 10.534C2.49472 10.6504 2.36671 10.7717 2.24278 10.8979C1.54502 11.5832 0.996778 12.3931 0.598058 13.3276C0.201742 14.2564 0.00238904 15.2468 0 16.2988V29.027H5.08366V16.318C5.08366 15.9696 5.15197 15.6399 5.28861 15.3288L5.28927 15.3272C5.42567 15.0172 5.60528 14.7442 5.82808 14.5082L5.83128 14.5048C6.06802 14.2681 6.33591 14.0874 6.63495 13.9628C6.94645 13.8258 7.27664 13.7572 7.62552 13.7572L7.66317 13.7575C8.00505 13.7599 8.32891 13.8285 8.63475 13.963C8.89993 14.0735 9.14061 14.2281 9.3568 14.4268C9.38449 14.4521 9.41171 14.4781 9.43845 14.5048C9.67519 14.7416 9.85585 15.0157 9.98046 15.3272C10.1175 15.6387 10.186 15.9689 10.186 16.3178V29.027H15.2697V16.318C15.2697 15.9696 15.338 15.6399 15.4747 15.3288L15.4753 15.3272L15.476 15.3257C15.6 15.0163 15.7794 14.7438 16.0141 14.5082L16.0173 14.5048C16.2541 14.2681 16.522 14.0874 16.821 13.9628C17.1325 13.8258 17.4627 13.7572 17.8116 13.7572L17.8492 13.7575C18.1911 13.7599 18.515 13.8285 18.8208 13.963C19.0859 14.0735 19.3266 14.228 19.5427 14.4266C19.5704 14.452 19.5977 14.4781 19.6245 14.5048C19.8612 14.7416 20.0419 15.0157 20.1665 15.3272C20.3036 15.6387 20.3721 15.9689 20.3721 16.3178V29.027H25.4557V16.299C25.4534 15.2469 25.254 14.2563 24.8577 13.3274C24.459 12.3929 23.9107 11.583 23.213 10.8977Z" fill="#222222"/>
<circle cx="103.014" cy="26.4259" r="2.88492" fill="#60A6F7"/>
</svg>
